<svg width="117" height="37" viewBox="0 0 117 37" fill="none" xmlns="http://www.w3.org/2000/svg">
<rect width="37" height="37" fill="#545456"/>
<path d="M48.4453 16V1.78125H52.6445C53.901 1.78125 55.0143 2.0612 55.9844 2.62109C56.9609 3.18099 57.7161 3.97526 58.25 5.00391C58.7839 6.03255 59.0508 7.21094 59.0508 8.53906V9.25195C59.0508 10.5996 58.7806 11.7845 58.2402 12.8066C57.7064 13.8288 56.9414 14.6165 55.9453 15.1699C54.9557 15.7233 53.8197 16 52.5371 16H48.4453ZM50.916 3.77344V14.0273H52.5273C53.8229 14.0273 54.8158 13.6237 55.5059 12.8164C56.2025 12.0026 56.5573 10.8372 56.5703 9.32031V8.5293C56.5703 6.98633 56.235 5.80794 55.5645 4.99414C54.8939 4.18034 53.9206 3.77344 52.6445 3.77344H50.916Z" fill="#545456"/>
<path d="M67.5957 16C67.4915 15.7982 67.4004 15.4694 67.3223 15.0137C66.5671 15.8014 65.6426 16.1953 64.5488 16.1953C63.4876 16.1953 62.6217 15.8926 61.9512 15.2871C61.2806 14.6816 60.9453 13.9329 60.9453 13.041C60.9453 11.9147 61.362 11.0521 62.1953 10.4531C63.0352 9.84766 64.2331 9.54492 65.7891 9.54492H67.2441V8.85156C67.2441 8.30469 67.0911 7.86849 66.7852 7.54297C66.4792 7.21094 66.0137 7.04492 65.3887 7.04492C64.8483 7.04492 64.4056 7.18164 64.0605 7.45508C63.7155 7.72201 63.543 8.0638 63.543 8.48047H61.1699C61.1699 7.90104 61.362 7.36068 61.7461 6.85938C62.1302 6.35156 62.651 5.95443 63.3086 5.66797C63.9727 5.38151 64.7116 5.23828 65.5254 5.23828C66.7624 5.23828 67.7487 5.55078 68.4844 6.17578C69.2201 6.79427 69.5977 7.66667 69.6172 8.79297V13.5586C69.6172 14.5091 69.7507 15.2676 70.0176 15.834V16H67.5957ZM64.9883 14.291C65.457 14.291 65.8965 14.1771 66.3066 13.9492C66.7233 13.7214 67.0358 13.4154 67.2441 13.0312V11.0391H65.9648C65.0859 11.0391 64.4251 11.1921 63.9824 11.498C63.5397 11.804 63.3184 12.237 63.3184 12.7969C63.3184 13.2526 63.4681 13.6172 63.7676 13.8906C64.0736 14.1576 64.4805 14.291 64.9883 14.291Z" fill="#545456"/>
<path d="M74.3047 5.43359L74.373 6.6543C75.1543 5.71029 76.1797 5.23828 77.4492 5.23828C79.6497 5.23828 80.7695 6.49805 80.8086 9.01758V16H78.4355V9.1543C78.4355 8.48372 78.2891 7.98893 77.9961 7.66992C77.7096 7.3444 77.2376 7.18164 76.5801 7.18164C75.623 7.18164 74.9102 7.61458 74.4414 8.48047V16H72.0684V5.43359H74.3047Z" fill="#545456"/>
<path d="M85.7598 16H83.3867V5.43359H85.7598V16ZM83.2402 2.68945C83.2402 2.32487 83.3542 2.02214 83.582 1.78125C83.8164 1.54036 84.1484 1.41992 84.5781 1.41992C85.0078 1.41992 85.3398 1.54036 85.5742 1.78125C85.8086 2.02214 85.9258 2.32487 85.9258 2.68945C85.9258 3.04753 85.8086 3.34701 85.5742 3.58789C85.3398 3.82227 85.0078 3.93945 84.5781 3.93945C84.1484 3.93945 83.8164 3.82227 83.582 3.58789C83.3542 3.34701 83.2402 3.04753 83.2402 2.68945Z" fill="#545456"/>
<path d="M93.0059 16.1953C91.502 16.1953 90.2812 15.7233 89.3438 14.7793C88.4128 13.8288 87.9473 12.5658 87.9473 10.9902V10.6973C87.9473 9.64258 88.1491 8.70182 88.5527 7.875C88.9629 7.04167 89.5358 6.39388 90.2715 5.93164C91.0072 5.4694 91.8275 5.23828 92.7324 5.23828C94.1712 5.23828 95.2812 5.69727 96.0625 6.61523C96.8503 7.5332 97.2441 8.83203 97.2441 10.5117V11.4688H90.3398C90.4115 12.3411 90.7012 13.0312 91.209 13.5391C91.7233 14.0469 92.3678 14.3008 93.1426 14.3008C94.2298 14.3008 95.1152 13.8613 95.7988 12.9824L97.0781 14.2031C96.6549 14.8346 96.0885 15.3262 95.3789 15.6777C94.6758 16.0228 93.8848 16.1953 93.0059 16.1953ZM92.7227 7.14258C92.0716 7.14258 91.5443 7.37044 91.1406 7.82617C90.7435 8.2819 90.4896 8.91667 90.3789 9.73047H94.9004V9.55469C94.8483 8.76042 94.6367 8.16146 94.2656 7.75781C93.8945 7.34766 93.3802 7.14258 92.7227 7.14258Z" fill="#545456"/>
<path d="M101.619 16H99.2461V1H101.619V16Z" fill="#545456"/>
<path d="M110.525 16C110.421 15.7982 110.33 15.4694 110.252 15.0137C109.497 15.8014 108.572 16.1953 107.479 16.1953C106.417 16.1953 105.551 15.8926 104.881 15.2871C104.21 14.6816 103.875 13.9329 103.875 13.041C103.875 11.9147 104.292 11.0521 105.125 10.4531C105.965 9.84766 107.163 9.54492 108.719 9.54492H110.174V8.85156C110.174 8.30469 110.021 7.86849 109.715 7.54297C109.409 7.21094 108.943 7.04492 108.318 7.04492C107.778 7.04492 107.335 7.18164 106.99 7.45508C106.645 7.72201 106.473 8.0638 106.473 8.48047H104.1C104.1 7.90104 104.292 7.36068 104.676 6.85938C105.06 6.35156 105.581 5.95443 106.238 5.66797C106.902 5.38151 107.641 5.23828 108.455 5.23828C109.692 5.23828 110.678 5.55078 111.414 6.17578C112.15 6.79427 112.527 7.66667 112.547 8.79297V13.5586C112.547 14.5091 112.68 15.2676 112.947 15.834V16H110.525ZM107.918 14.291C108.387 14.291 108.826 14.1771 109.236 13.9492C109.653 13.7214 109.965 13.4154 110.174 13.0312V11.0391H108.895C108.016 11.0391 107.355 11.1921 106.912 11.498C106.469 11.804 106.248 12.237 106.248 12.7969C106.248 13.2526 106.398 13.6172 106.697 13.8906C107.003 14.1576 107.41 14.291 107.918 14.291Z" fill="#545456"/>
<path d="M55.877 32.3379C55.877 31.7129 55.6556 31.2311 55.2129 30.8926C54.7767 30.554 53.9857 30.2122 52.8398 29.8672C51.694 29.5221 50.7826 29.138 50.1055 28.7148C48.8099 27.901 48.1621 26.8398 48.1621 25.5312C48.1621 24.3854 48.6276 23.4414 49.5586 22.6992C50.4961 21.957 51.7103 21.5859 53.2012 21.5859C54.1908 21.5859 55.0729 21.7682 55.8477 22.1328C56.6224 22.4974 57.2311 23.0182 57.6738 23.6953C58.1165 24.3659 58.3379 25.1113 58.3379 25.9316H55.877C55.877 25.1895 55.6426 24.61 55.1738 24.1934C54.7116 23.7702 54.0475 23.5586 53.1816 23.5586C52.3743 23.5586 51.7461 23.7311 51.2969 24.0762C50.8542 24.4212 50.6328 24.903 50.6328 25.5215C50.6328 26.0423 50.8737 26.4785 51.3555 26.8301C51.8372 27.1751 52.6315 27.5137 53.7383 27.8457C54.8451 28.1712 55.7337 28.5456 56.4043 28.9688C57.0749 29.3854 57.5664 29.8672 57.8789 30.4141C58.1914 30.9544 58.3477 31.5892 58.3477 32.3184C58.3477 33.5033 57.8919 34.4473 56.9805 35.1504C56.0755 35.847 54.8451 36.1953 53.2891 36.1953C52.2604 36.1953 51.3132 36.0065 50.4473 35.6289C49.5879 35.2448 48.9173 34.7174 48.4355 34.0469C47.9603 33.3763 47.7227 32.5951 47.7227 31.7031H50.1934C50.1934 32.5104 50.4603 33.1354 50.9941 33.5781C51.528 34.0208 52.293 34.2422 53.2891 34.2422C54.1484 34.2422 54.793 34.0697 55.2227 33.7246C55.6589 33.373 55.877 32.9108 55.877 32.3379Z" fill="#545456"/>
<path d="M59.8418 30.6191C59.8418 29.584 60.0469 28.653 60.457 27.8262C60.8672 26.9928 61.4434 26.3548 62.1855 25.9121C62.9277 25.4629 63.7806 25.2383 64.7441 25.2383C66.1699 25.2383 67.3255 25.6973 68.2109 26.6152C69.1029 27.5332 69.5846 28.7507 69.6562 30.2676L69.666 30.8242C69.666 31.8659 69.4642 32.7969 69.0605 33.6172C68.6634 34.4375 68.0905 35.0723 67.3418 35.5215C66.5996 35.9707 65.7402 36.1953 64.7637 36.1953C63.2728 36.1953 62.0781 35.7005 61.1797 34.7109C60.2878 33.7148 59.8418 32.39 59.8418 30.7363V30.6191ZM62.2148 30.8242C62.2148 31.9115 62.4395 32.7643 62.8887 33.3828C63.3379 33.9948 63.9629 34.3008 64.7637 34.3008C65.5645 34.3008 66.1862 33.9883 66.6289 33.3633C67.0781 32.7383 67.3027 31.8236 67.3027 30.6191C67.3027 29.5514 67.0716 28.7051 66.6094 28.0801C66.1536 27.4551 65.5319 27.1426 64.7441 27.1426C63.9694 27.1426 63.3542 27.4518 62.8984 28.0703C62.4427 28.6823 62.2148 29.6003 62.2148 30.8242Z" fill="#545456"/>
<path d="M72.5078 36V27.1914H70.8965V25.4336H72.5078V24.4668C72.5078 23.2949 72.8333 22.39 73.4844 21.752C74.1354 21.1139 75.0469 20.7949 76.2188 20.7949C76.6354 20.7949 77.0781 20.8535 77.5469 20.9707L77.4883 22.8262C77.2279 22.7741 76.9251 22.748 76.5801 22.748C75.4473 22.748 74.8809 23.3307 74.8809 24.4961V25.4336H77.0293V27.1914H74.8809V36H72.5078Z" fill="#545456"/>
<path d="M84.2949 27.6016C83.9824 27.5495 83.6602 27.5234 83.3281 27.5234C82.2409 27.5234 81.5085 27.9401 81.1309 28.7734V36H78.7578V25.4336H81.0234L81.082 26.6152C81.6549 25.6973 82.4492 25.2383 83.4648 25.2383C83.8034 25.2383 84.0833 25.2839 84.3047 25.375L84.2949 27.6016Z" fill="#545456"/>
<path d="M84.998 30.6191C84.998 29.584 85.2031 28.653 85.6133 27.8262C86.0234 26.9928 86.5996 26.3548 87.3418 25.9121C88.084 25.4629 88.9368 25.2383 89.9004 25.2383C91.3262 25.2383 92.4818 25.6973 93.3672 26.6152C94.2591 27.5332 94.7409 28.7507 94.8125 30.2676L94.8223 30.8242C94.8223 31.8659 94.6204 32.7969 94.2168 33.6172C93.8197 34.4375 93.2467 35.0723 92.498 35.5215C91.7559 35.9707 90.8965 36.1953 89.9199 36.1953C88.429 36.1953 87.2344 35.7005 86.3359 34.7109C85.444 33.7148 84.998 32.39 84.998 30.7363V30.6191ZM87.3711 30.8242C87.3711 31.9115 87.5957 32.7643 88.0449 33.3828C88.4941 33.9948 89.1191 34.3008 89.9199 34.3008C90.7207 34.3008 91.3424 33.9883 91.7852 33.3633C92.2344 32.7383 92.459 31.8236 92.459 30.6191C92.459 29.5514 92.2279 28.7051 91.7656 28.0801C91.3099 27.4551 90.6882 27.1426 89.9004 27.1426C89.1257 27.1426 88.5104 27.4518 88.0547 28.0703C87.599 28.6823 87.3711 29.6003 87.3711 30.8242Z" fill="#545456"/>
<path d="M99.0312 25.4336L99.0996 26.6543C99.8809 25.7103 100.906 25.2383 102.176 25.2383C104.376 25.2383 105.496 26.498 105.535 29.0176V36H103.162V29.1543C103.162 28.4837 103.016 27.9889 102.723 27.6699C102.436 27.3444 101.964 27.1816 101.307 27.1816C100.35 27.1816 99.6367 27.6146 99.168 28.4805V36H96.7949V25.4336H99.0312Z" fill="#545456"/>
<path d="M112.615 36.1953C111.111 36.1953 109.891 35.7233 108.953 34.7793C108.022 33.8288 107.557 32.5658 107.557 30.9902V30.6973C107.557 29.6426 107.758 28.7018 108.162 27.875C108.572 27.0417 109.145 26.3939 109.881 25.9316C110.617 25.4694 111.437 25.2383 112.342 25.2383C113.781 25.2383 114.891 25.6973 115.672 26.6152C116.46 27.5332 116.854 28.832 116.854 30.5117V31.4688H109.949C110.021 32.3411 110.311 33.0312 110.818 33.5391C111.333 34.0469 111.977 34.3008 112.752 34.3008C113.839 34.3008 114.725 33.8613 115.408 32.9824L116.688 34.2031C116.264 34.8346 115.698 35.3262 114.988 35.6777C114.285 36.0228 113.494 36.1953 112.615 36.1953ZM112.332 27.1426C111.681 27.1426 111.154 27.3704 110.75 27.8262C110.353 28.2819 110.099 28.9167 109.988 29.7305H114.51V29.5547C114.458 28.7604 114.246 28.1615 113.875 27.7578C113.504 27.3477 112.99 27.1426 112.332 27.1426Z" fill="#545456"/>
<path d="M9.25 27.75V27.75C8.42157 27.75 7.75 27.0784 7.75 26.25V9.865L7.75 9.86502C7.75273 8.97422 8.47418 8.25276 9.36498 8.25H28.643V8.25C29.5294 8.25275 30.2472 8.97062 30.25 9.857V26.135V26.135C30.2472 27.0258 29.5258 27.7472 28.635 27.75H9.25Z" stroke="white" stroke-width="1.5" stroke-linecap="round" stroke-linejoin="round"/>
<path d="M30.25 12.75H7.75" stroke="white" stroke-width="1.5" stroke-linecap="round" stroke-linejoin="round"/>
<path d="M19.75 20.25H24.25" stroke="white" stroke-width="1.5" stroke-linecap="round" stroke-linejoin="round"/>
<path d="M13.75 17.25L16.75 20.25L13.75 23.25" stroke="white" stroke-width="1.5" stroke-linecap="round" stroke-linejoin="round"/>
</svg>
