<?xml version="1.0" encoding="UTF-8"?>
<svg width="18px" height="20px" viewBox="0 0 18 20" version="1.1" xmlns="http://www.w3.org/2000/svg" xmlns:xlink="http://www.w3.org/1999/xlink">
    <!-- Generator: Sketch 60 (88103) - https://sketch.com -->
    <title>assignment-24px-gray</title>
    <desc>Created with Sketch.</desc>
    <g id="Page-1" stroke="none" stroke-width="1" fill="none" fill-rule="evenodd">
        <g id="assignment-24px-gray" transform="translate(-3.000000, -1.000000)" fill="#8091A5" fill-rule="nonzero">
            <path d="M19,3 L14.82,3 C14.4,1.84 13.3,1 12,1 C10.7,1 9.6,1.84 9.18,3 L5,3 C3.9,3 3,3.9 3,5 L3,19 C3,20.1 3.9,21 5,21 L19,21 C20.1,21 21,20.1 21,19 L21,5 C21,3.9 20.1,3 19,3 Z M12,3 C12.55,3 13,3.45 13,4 C13,4.55 12.55,5 12,5 C11.45,5 11,4.55 11,4 C11,3.45 11.45,3 12,3 Z M14,17 L7,17 L7,15 L14,15 L14,17 Z M17,13 L7,13 L7,11 L17,11 L17,13 Z M17,9 L7,9 L7,7 L17,7 L17,9 Z" id="Shape"></path>
        </g>
    </g>
</svg>